<svg id="Layer_1" data-name="Layer 1" xmlns="http://www.w3.org/2000/svg" xmlns:xlink="http://www.w3.org/1999/xlink" viewBox="0 0 1920 1080"><defs><style>.cls-1{font-size:77.7293px;font-family:AGaramond-Bold, Adobe Garamond;font-weight:700;}.cls-2{font-size:79.461px;fill:#f3a602;font-family:BellMTItalic, Bell MT;}.cls-3{fill:#0c1a51;}.cls-3,.cls-5{font-family:MyriadPro-Regular, Myriad Pro;}.cls-4{font-family:Brigham;}.cls-4,.cls-5,.cls-6{fill:#000;}.cls-7{fill:url(#linear-gradient);}.cls-8{fill:none;stroke:#000;stroke-miterlimit:10;}</style><linearGradient id="linear-gradient" x1="-265.1427" y1="793.4466" x2="26.1966" y2="796.4168" gradientTransform="translate(417.5972 -263.2146)" gradientUnits="userSpaceOnUse"><stop offset="0" stop-color="#ffd200"/><stop offset="0.1219" stop-color="#fdc903"/><stop offset="0.3246" stop-color="#f9af0a"/><stop offset="0.5829" stop-color="#f28616"/><stop offset="0.884" stop-color="#e84d26"/><stop offset="1" stop-color="#e4352d"/></linearGradient></defs><text class="cls-1" transform="translate(406.7163 610.0664)">AWARENESS BROKERS FOUNDATION</text><text class="cls-2" transform="translate(403.373 687.459)">Awareness<tspan class="cls-3" x="310.3555" y="0"> </tspan><tspan class="cls-4" x="327.2007" y="0">OF</tspan><tspan class="cls-5" x="408.6406" y="0"> </tspan><tspan class="cls-6" x="425.4854" y="0">Today, </tspan><tspan class="cls-6" x="646.6025" y="0">Solution</tspan><tspan class="cls-5" x="897.3623" y="0"> </tspan><tspan class="cls-4" x="914.207" y="0">OF</tspan><tspan class="cls-5" x="995.6465" y="0"> </tspan><tspan class="cls-6" x="1012.4912" y="0">Tomorrow.</tspan></text><path class="cls-7" d="M384.5743,414.8359s-2.777-13.5848-21.9858-36.9311a13.3021,13.3021,0,0,0-1.8912-1.8441,122.158,122.158,0,0,0-191.6729,18.092l-.0083.0026s-15.5424,23.3561-17.518,61.32S179.8129,531.58,179.8129,531.58s11.4821,14.7508,15.8882,23.8959,8.1924,22.17,18.6425,29.288,24.5351,8.6328,30.29,9.5414c4.2874.677,16.1395,1.1859,21.9059,1.4014a52.1716,52.1716,0,0,0,5.7941-.1082c7.2956-.5365,28.0235-1.3756,33.4861,5.8251,6.6638,8.784,4.3921,14.8421,1.9689,18.4769s-8.7842,9.2385-27.867,8.027-28.17-1.3631-28.17-1.3631-27.0394.06-40.4779-11.6319c0,0,2.7667,15.2667,32.6025,20.416a230.7885,230.7885,0,0,0,28.9271,2.2718c13.6306,0,18.78-1.06,22.869-.7573s13.9336,0,18.1742,7.5725a16.4893,16.4893,0,0,1,1.61,10.8249,15.3207,15.3207,0,0,1-6.2292,10.0805c-3.1048,2.197-7.9793,4.3973-15.2208,4.69-14.9936.6057-13.1762-.9088-33.3192,0s-39.0742-2.8776-50.5845-11.3588c0,0,.394,12.4124,27.4549,18.32a197.0745,197.0745,0,0,0,30.1145,3.5418c2.2632.0829,4.5315.0358,6.7931-.0817,4.5388-.2358,14.1563-.2439,18.0267,3.5126,5.1493,4.9979,5.46,7.47,4.85,12.5949s-2.73,14.9691-18.9352,14.9691-22.1118-.6058-33.4706-.7572c0,0,13.6305,18.0226,34.3793,13.6306,0,0,9.5414-1.5146,15.7509-7.27s6.3441-9.5414,20.6646-23.172c0,0,6.5965-5.6793,8.49-9.1627s3.1692-9.606,2.834-12.3377l.8386-38.7391s.7952-26.7426-2.2339-32.6-10.7473-15.6352-22.6741-17.2654-14.6344-2.12-30.9653-.6059c-14.87,1.379-33.78-1.26-46.6478-11.1188a20.7963,20.7963,0,0,1-6.5307-8.1665,30.3545,30.3545,0,0,1-1.4694-19.4861s5.9708,4.2406,35.1688,4.8465c24.3835.5059,40.2339.0612,44.798-.0992.6567-.0231,1.2968-.0573,1.9507-.1221,2.6425-.2616,13.9822-.848,29.8707,5.9585.5026.2153.9911.4553,1.4708.7177,2.7372,1.4971,12.3029,6.8314,13.8347,9.0846,0,0,7.6975-18.2657,14.0584-26.2925s14.9937-22.2633,14.9937-22.2633,13.3143-21.9766,16.811-47.2526S384.5743,414.8359,384.5743,414.8359Z"/><path class="cls-8" d="M384.5743,418.8358s-2.777-13.5848-21.9858-36.9311a13.3021,13.3021,0,0,0-1.8912-1.8441,122.158,122.158,0,0,0-191.6729,18.092l-.0083.0026s-15.5424,23.3561-17.518,61.32S179.8129,535.58,179.8129,535.58s11.4821,14.7508,15.8882,23.8959,8.1924,22.17,18.6425,29.288,24.5351,8.6327,30.29,9.5414c4.2874.677,16.1395,1.1858,21.9059,1.4014a52.1958,52.1958,0,0,0,5.7941-.1082c7.2956-.5365,28.0235-1.3756,33.4861,5.825,6.6638,8.7841,4.3921,14.8422,1.9689,18.477s-8.7842,9.2385-27.867,8.0269-28.17-1.363-28.17-1.363-27.0394.06-40.4779-11.6319c0,0,2.7667,15.2667,32.6025,20.416a230.7984,230.7984,0,0,0,28.9271,2.2717c13.6306,0,18.78-1.06,22.869-.7572s13.9336,0,18.1742,7.5725a16.4891,16.4891,0,0,1,1.61,10.8248,15.3207,15.3207,0,0,1-6.2292,10.0806c-3.1048,2.197-7.9793,4.3972-15.2208,4.69-14.9936.6058-13.1762-.9087-33.3192,0s-39.0742-2.8775-50.5845-11.3588c0,0,.394,12.4124,27.4549,18.32a197.0745,197.0745,0,0,0,30.1145,3.5418c2.2632.0829,4.5315.0358,6.7931-.0817,4.5388-.2358,14.1563-.244,18.0267,3.5126,5.1493,4.9978,5.46,7.47,4.85,12.5948s-2.73,14.9692-18.9352,14.9692-22.1118-.6058-33.4706-.7572c0,0,13.6305,18.0226,34.3793,13.6306,0,0,9.5414-1.5146,15.7509-7.27s6.3441-9.5414,20.6646-23.172c0,0,6.5965-5.6794,8.49-9.1627s3.1692-9.6061,2.834-12.3377l.8386-38.7391s.7952-26.7426-2.2339-32.6-10.7473-15.6351-22.6741-17.2654-14.6344-2.12-30.9653-.6058c-14.87,1.379-33.78-1.26-46.6478-11.1188a20.7963,20.7963,0,0,1-6.5307-8.1665,30.3545,30.3545,0,0,1-1.4694-19.4861s5.9708,4.2406,35.1688,4.8464c24.3835.506,40.2339.0613,44.798-.0991.6567-.0231,1.2968-.0573,1.9507-.1221,2.6425-.2616,13.9822-.848,29.8707,5.9584.5026.2153.9911.4554,1.4708.7177,2.7372,1.4972,12.3029,6.8315,13.8347,9.0847,0,0,7.6975-18.2657,14.0584-26.2925s14.9937-22.2633,14.9937-22.2633,13.3143-21.9767,16.811-47.2527S384.5743,418.8358,384.5743,418.8358Z"/></svg>